<svg width="80" height="80" viewBox="0 0 80 80" fill="none" xmlns="http://www.w3.org/2000/svg">
<g opacity="0.8">
<path d="M14.917 12.5H65.084C67.5196 12.5001 69.2807 13.5183 70.4395 15.5781C71.6022 17.6453 71.5913 19.68 70.4014 21.75L45.3174 65.083V65.084C44.1285 67.1517 42.3759 68.167 40 68.167C37.6243 68.1669 35.8724 67.1515 34.6836 65.084V65.083L9.59961 21.75C8.4097 19.68 8.39872 17.6453 9.56152 15.5781C10.7203 13.5183 12.4813 12.5 14.917 12.5ZM33.8174 52.249L39.5674 62.249L40 63.0029L40.4336 62.249L46.1836 52.249L46.6143 51.5H33.3857L33.8174 52.249ZM24.1504 35.583L29.9004 45.583L30.0449 45.833H49.9561L50.1006 45.583L55.8506 35.583L56.2812 34.833H23.7197L24.1504 35.583ZM14.4834 18.916L20.2334 28.916L20.3779 29.167H59.623L59.7676 28.916L65.5176 18.916L65.9482 18.167H14.0527L14.4834 18.916Z" fill="white" fill-opacity="0.7" stroke="white"/>
</g>
</svg>
