<svg width="80" height="80" viewBox="0 0 80 80" fill="none" xmlns="http://www.w3.org/2000/svg">
<path d="M57.5625 55.1621C58.3159 55.068 59.0227 55.2514 59.7041 55.7363L65.0332 59.7334L65.043 59.7402C65.7155 60.2206 66.0783 60.8215 66.1709 61.5615C66.2653 62.3169 66.0815 63.026 65.5938 63.709C65.1133 64.3816 64.5117 64.7444 63.7715 64.8369C63.0177 64.9311 62.3106 64.7482 61.6289 64.2627L56.3008 60.2666L56.291 60.2598L56.0527 60.0732C55.5317 59.6263 55.244 59.085 55.1631 58.4375C55.0687 57.6821 55.2524 56.9731 55.7402 56.29C56.2207 55.6175 56.8224 55.2546 57.5625 55.1621ZM39.9277 23C40.387 23.0001 40.867 23.1354 41.373 23.4316C42.3645 24.0121 42.8339 24.8232 42.834 25.916V54.083C42.834 55.1761 42.3647 55.9878 41.373 56.5684C40.867 56.8646 40.387 56.9999 39.9277 57C39.469 57 38.9976 56.8651 38.5078 56.5713H38.5068L26.9258 49.5723L26.8066 49.5H22.834V60C22.8339 60.8184 22.5619 61.481 22.0215 62.0215C21.481 62.5618 20.8184 62.833 20 62.833C19.1816 62.8329 18.5189 62.5619 17.9785 62.0215C17.4381 61.481 17.167 60.8184 17.167 60V49.5H13.334C11.6343 49.5 10.1911 48.9 8.97852 47.6875C7.76624 46.475 7.16699 45.0325 7.16699 43.333V36.666L7.17383 36.3506C7.24415 34.7873 7.84188 33.4482 8.97852 32.3115C10.1911 31.099 11.6343 30.5 13.334 30.5H26.8066L26.9258 30.4277L38.5068 23.4277L38.5078 23.4287C38.9976 23.1348 39.4689 23 39.9277 23ZM47.167 30.0107C48.2369 31.1315 49.1286 32.4346 49.8408 33.9238C50.723 35.7684 51.167 37.7914 51.167 40C51.167 42.2085 50.723 44.2317 49.8408 46.0762C49.1288 47.5649 48.2364 48.8668 47.167 49.9873V30.0107ZM36.4121 31.4023L28.3652 36.166H12.834V43.833H28.3633L36.4121 48.5967L37.167 49.043V30.9561L36.4121 31.4023ZM63.334 37.166H70C70.8185 37.166 71.481 37.4381 72.0215 37.9785C72.562 38.519 72.834 39.1815 72.834 40C72.8339 40.8184 72.5619 41.481 72.0215 42.0215C71.481 42.5618 70.8184 42.833 70 42.833H63.334C62.5156 42.833 61.8529 42.5618 61.3125 42.0215C60.7721 41.481 60.5 40.8184 60.5 40C60.5 39.1815 60.772 38.519 61.3125 37.9785C61.853 37.4381 62.5155 37.166 63.334 37.166ZM63.7715 15.1621C64.5116 15.2546 65.1133 15.6174 65.5938 16.29C66.0816 16.9731 66.2653 17.6821 66.1709 18.4375C66.09 19.085 65.8023 19.6263 65.2812 20.0732L65.043 20.2598L65.0332 20.2666L59.7041 24.2627C59.0226 24.7478 58.316 24.9311 57.5625 24.8369C56.8223 24.7444 56.2207 24.3816 55.7402 23.709C55.2524 23.026 55.0687 22.3169 55.1631 21.5615C55.2441 20.9141 55.5316 20.3727 56.0527 19.9258L56.291 19.7402L56.3008 19.7334L61.6289 15.7363C62.3105 15.251 63.0179 15.068 63.7715 15.1621Z" fill="white" fill-opacity="0.7" stroke="white"/>
</svg>
