<svg width="80" height="80" viewBox="0 0 80 80" fill="none" xmlns="http://www.w3.org/2000/svg">
<path d="M26.666 10.5H63.333C64.1515 10.5 64.814 10.7711 65.3545 11.3115C65.8949 11.8519 66.1659 12.5146 66.166 13.333V46.667C66.1659 48.3665 65.5669 49.809 64.3545 51.0215C63.142 52.2339 61.6995 52.8329 60 52.833H49.5V66.667C49.4999 68.3665 48.9 69.809 47.6875 71.0215C46.475 72.2339 45.0326 72.833 43.333 72.833H36.666C34.9665 72.8329 33.524 72.2339 32.3115 71.0215C31.0991 69.809 30.5001 68.3665 30.5 66.667V52.833H20C18.3003 52.833 16.8571 52.234 15.6445 51.0215C14.4322 49.8091 13.8331 48.3664 13.833 46.667V23.333C13.8331 19.8001 15.0855 16.7885 17.6035 14.2705C20.1215 11.7525 23.1332 10.5001 26.666 10.5ZM19.5 47.167H60.5V39.5H19.5V47.167ZM26.666 16.167C24.6992 16.1671 23.003 16.873 21.6045 18.2715C20.206 19.67 19.5001 21.3662 19.5 23.333V33.833H60.5V16.167H56.166V26.667C56.1659 27.4854 55.8949 28.1481 55.3545 28.6885C54.814 29.2289 54.1515 29.5 53.333 29.5C52.5146 29.5 51.852 29.2289 51.3115 28.6885C50.7711 28.1481 50.5001 27.4854 50.5 26.667V16.167H46.166V20C46.166 20.8185 45.895 21.481 45.3545 22.0215C44.814 22.562 44.1515 22.833 43.333 22.833C42.5145 22.833 41.852 22.562 41.3115 22.0215C40.771 21.481 40.5 20.8185 40.5 20V16.167H26.666Z" fill="white" fill-opacity="0.7" stroke="white"/>
</svg>
