<svg width="80" height="80" viewBox="0 0 80 80" fill="none" xmlns="http://www.w3.org/2000/svg">
<path d="M39.6328 11.5C40.1931 11.5001 40.7495 11.6518 41.3076 11.9707C41.8304 12.2694 42.2214 12.7172 42.4805 13.3389L42.4814 13.3408L49.1895 29.2627L49.3066 29.54L49.6064 29.5664L66.9385 31.085C67.7053 31.1953 68.2588 31.4356 68.6416 31.7705C69.0489 32.1269 69.3625 32.5899 69.5752 33.1748C69.7812 33.7414 69.8195 34.3163 69.6904 34.9102C69.5673 35.4765 69.2588 35.9965 68.7334 36.4717L55.585 47.832L55.3564 48.0293L55.4248 48.3232L59.3604 65.2295C59.5175 65.9112 59.4593 66.4938 59.2168 67.0029C58.9514 67.5601 58.5833 68.0201 58.1094 68.3887C57.6537 68.7431 57.1207 68.9489 56.4961 69.001C55.8988 69.0507 55.3207 68.9039 54.749 68.54L54.7383 68.5342L39.8906 59.5889L39.6328 59.4336L39.374 59.5889L24.5264 68.5342L24.5156 68.54C23.9439 68.9039 23.3659 69.0507 22.7686 69.001C22.1439 68.9489 21.611 68.7431 21.1553 68.3887C20.6814 68.0201 20.3132 67.5601 20.0479 67.0029C19.8054 66.4938 19.7472 65.9112 19.9043 65.2295L23.8398 48.3232L23.9082 48.0293L23.6797 47.832L10.5381 36.4775C10.0086 36.0008 9.69786 35.4789 9.57422 34.9102C9.44519 34.3163 9.48441 33.7414 9.69043 33.1748C9.90312 32.59 10.2158 32.1269 10.623 31.7705C11.0056 31.4358 11.5588 31.1954 12.3252 31.085L29.6582 29.5664L29.958 29.54L30.0752 29.2627L36.7832 13.3408L36.7842 13.3389C37.0432 12.7172 37.4343 12.2694 37.957 11.9707C38.5153 11.6517 39.0723 11.5 39.6328 11.5ZM39.1729 23.5039L34.1025 35.3057L21.3408 36.4414L20.1738 36.5459L21.0557 37.3164L30.7578 45.7959L27.875 58.2949L27.6094 59.4453L28.6201 58.835L39.6299 52.1934L50.6426 58.9238L51.6553 59.543L51.3906 58.3848L48.5049 45.7969L58.207 37.4072L59.0986 36.6357L57.9238 36.5312L45.1621 35.3945L40.0928 23.5059L39.6338 22.4307L39.1729 23.5039Z" fill="white" fill-opacity="0.7" stroke="white"/>
</svg>
