<svg width="80" height="80" viewBox="0 0 80 80" fill="none" xmlns="http://www.w3.org/2000/svg">
<path d="M13.334 10.5H66.667C68.3665 10.5 69.809 11.0992 71.0215 12.3115C72.234 13.5241 72.834 14.9673 72.834 16.667V63.333C72.834 65.0327 72.234 66.4759 71.0215 67.6885C69.809 68.9008 68.3665 69.5 66.667 69.5H13.334C11.6343 69.5 10.1911 68.901 8.97852 67.6885C7.76598 66.4759 7.16699 65.0327 7.16699 63.333V16.667L7.17383 16.3506C7.2442 14.7873 7.84186 13.4482 8.97852 12.3115C10.1911 11.099 11.6343 10.5 13.334 10.5ZM12.834 63.833H67.167V16.167H12.834V63.833ZM23.334 50.5H56.667C57.4854 50.5 58.148 50.7711 58.6885 51.3115C59.2289 51.8519 59.4999 52.5146 59.5 53.333C59.5 54.1515 59.2289 54.814 58.6885 55.3545C58.148 55.895 57.4855 56.167 56.667 56.167H23.334C22.5155 56.167 21.853 55.895 21.3125 55.3545C20.772 54.814 20.5 54.1515 20.5 53.333C20.5001 52.5146 20.7721 51.8519 21.3125 51.3115C21.8529 50.7712 22.5156 50.5 23.334 50.5ZM23.334 23.833H30C30.8185 23.833 31.481 24.105 32.0215 24.6455C32.562 25.186 32.834 25.8485 32.834 26.667V40C32.834 40.8185 32.562 41.481 32.0215 42.0215C31.481 42.5619 30.8184 42.833 30 42.833H23.334C22.5155 42.833 21.853 42.5619 21.3125 42.0215C20.772 41.481 20.5 40.8185 20.5 40V26.667C20.5 25.8485 20.772 25.186 21.3125 24.6455C21.853 24.105 22.5155 23.833 23.334 23.833ZM43.334 37.167H56.667C57.4855 37.167 58.148 37.438 58.6885 37.9785C59.229 38.519 59.5 39.1815 59.5 40C59.5 40.8185 59.229 41.481 58.6885 42.0215C58.148 42.562 57.4855 42.833 56.667 42.833H43.334C42.5155 42.833 41.853 42.5619 41.3125 42.0215C40.772 41.481 40.5 40.8185 40.5 40C40.5 39.1815 40.772 38.519 41.3125 37.9785C41.853 37.4381 42.5155 37.167 43.334 37.167ZM43.334 23.833H56.667C57.4855 23.833 58.148 24.105 58.6885 24.6455C59.2289 25.186 59.5 25.8485 59.5 26.667C59.4999 27.4854 59.2289 28.1481 58.6885 28.6885C58.148 29.2289 57.4854 29.5 56.667 29.5H43.334C42.5156 29.5 41.8529 29.2288 41.3125 28.6885C40.7721 28.1481 40.5001 27.4854 40.5 26.667C40.5 25.8485 40.772 25.186 41.3125 24.6455C41.853 24.105 42.5155 23.833 43.334 23.833Z" fill="white" fill-opacity="0.7" stroke="white"/>
</svg>
